<?xml version="1.0" encoding="UTF-8" standalone="no"?>
<svg
   shape-rendering="geometricPrecision"
   text-rendering="geometricPrecision"
   image-rendering="optimizeQuality"
   fill-rule="evenodd"
   clip-rule="evenodd"
   viewBox="0 0 416 512.285"
   version="1.1"
   id="svg4"
   sodipodi:docname="notepad++.svg"
   inkscape:version="1.4 (86a8ad7, 2024-10-11)"
   inkscape:export-filename="notepad++.png"
   inkscape:export-xdpi="96"
   inkscape:export-ydpi="96"
   xmlns:inkscape="http://www.inkscape.org/namespaces/inkscape"
   xmlns:sodipodi="http://sodipodi.sourceforge.net/DTD/sodipodi-0.dtd"
   xmlns="http://www.w3.org/2000/svg"
   xmlns:svg="http://www.w3.org/2000/svg">
  <defs
     id="defs4" />
  <sodipodi:namedview
     id="namedview4"
     pagecolor="#ffffff"
     bordercolor="#000000"
     borderopacity="0.25"
     inkscape:showpageshadow="2"
     inkscape:pageopacity="0.0"
     inkscape:pagecheckerboard="0"
     inkscape:deskcolor="#d1d1d1"
     showgrid="false"
     showguides="false"
     inkscape:zoom="2.1339433"
     inkscape:cx="260.08189"
     inkscape:cy="199.39611"
     inkscape:window-width="1920"
     inkscape:window-height="991"
     inkscape:window-x="-9"
     inkscape:window-y="-9"
     inkscape:window-maximized="1"
     inkscape:current-layer="svg4" />
  <path
     fill="#3c4d7a"
     fill-rule="nonzero"
     d="m 112.00571,98.299029 h 196.62764 c 15.68804,0 28.50259,12.996891 28.50259,28.908171 v 243.50669 c 0,15.90138 -12.8237,28.90818 -28.50259,28.90818 H 112.00571 c -15.688042,0 -28.502597,-12.99752 -28.502597,-28.90818 V 127.2072 c 0,-15.86676 12.858453,-28.908171 28.502597,-28.908171 z"
     id="path1"
     style="stroke-width:0.614017;fill:#adff2f;fill-opacity:1" />
  <path
     fill="#ffffff"
     d="m 112.00632,110.70415 h 196.62642 c 8.95213,0 16.27152,7.44455 16.27152,16.50305 v 243.50546 c 0,9.0585 -7.34012,16.50305 -16.27152,16.50305 H 112.00632 c -8.93141,0 -16.27091,-7.42353 -16.27091,-16.50305 V 127.2072 c 0,-9.07953 7.31938,-16.50305 16.27091,-16.50305 z"
     id="path2"
     style="stroke-width:0.614017" />
  <path
     fill="#88bcf4"
     fill-rule="nonzero"
     d="m 141.89293,192.95416 c -3.24114,0 -5.87136,-2.77772 -5.87136,-6.20288 0,-3.42515 2.63022,-6.20348 5.87136,-6.20348 h 136.85564 c 3.24113,0 5.87136,2.77833 5.87136,6.20348 0,3.42516 -2.63023,6.20288 -5.87136,6.20288 z m 0,138.77768 c -3.24114,0 -5.87136,-2.77772 -5.87136,-6.20286 0,-3.42515 2.63022,-6.20287 5.87136,-6.20287 h 136.85564 c 3.24113,0 5.87136,2.77772 5.87136,6.20287 0,3.42514 -2.63023,6.20286 -5.87136,6.20286 z m 0,-46.2584 c -3.24114,0 -5.87136,-2.77772 -5.87136,-6.20287 0,-3.42515 2.63022,-6.20348 5.87136,-6.20348 h 136.85564 c 3.24113,0 5.87136,2.77833 5.87136,6.20348 0,3.42515 -2.63023,6.20287 -5.87136,6.20287 z m 0,-46.25841 c -3.24114,0 -5.87136,-2.77833 -5.87136,-6.20287 0,-3.42514 2.63022,-6.20348 5.87136,-6.20348 h 136.85564 c 3.24113,0 5.87136,2.77834 5.87136,6.20348 0,3.42454 -2.63023,6.20287 -5.87136,6.20287 z"
     id="path3"
     style="stroke-width:0.614017;fill:#ff007b;fill-opacity:1" />
  <path
     fill="#3c4d7a"
     fill-rule="nonzero"
     d="m 133.37733,90.067899 c 0,-3.98973 3.19236,-7.2275 7.1261,-7.2275 3.93436,0 7.12611,3.23777 7.12611,7.2275 v 41.272491 c 0,3.98972 -3.19175,7.22751 -7.12611,7.22751 -3.93374,0 -7.1261,-3.23779 -7.1261,-7.22751 z m 136.83064,0 c 0,-3.98973 3.19236,-7.2275 7.12611,-7.2275 3.93436,0 7.12611,3.23777 7.12611,7.2275 v 41.272491 c 0,3.98972 -3.19175,7.22751 -7.12611,7.22751 -3.93375,0 -7.12611,-3.23779 -7.12611,-7.22751 z m -45.6094,0 c 0,-3.98973 3.19236,-7.2275 7.1261,-7.2275 3.93375,0 7.12611,3.23777 7.12611,7.2275 v 41.272491 c 0,3.98972 -3.19236,7.22751 -7.12611,7.22751 -3.93374,0 -7.1261,-3.23779 -7.1261,-7.22751 z m -45.6094,0 c 0,-3.98973 3.19175,-7.2275 7.1261,-7.2275 3.93375,0 7.12611,3.23777 7.12611,7.2275 v 41.272491 c 0,3.98972 -3.19236,7.22751 -7.12611,7.22751 -3.93435,0 -7.1261,-3.23779 -7.1261,-7.22751 z"
     id="path4"
     style="stroke-width:0.614017;fill:#ffe4c4;fill-opacity:1" />
  <g
     id="g12"
     transform="matrix(0.40841314,0,0,0.431155,271.65645,112.55035)">
    <g
       id="g9"
       style="fill:#ff007b;fill-opacity:1">
      <path
         fill="#3c4d7a"
         fill-rule="nonzero"
         d="m 71.888875,30.718642 c 0,-3.436157 0.143453,-19.460001 7.360418,-19.345936 6.743983,0.10659 6.891802,15.909779 6.891802,19.345936 v 35.545952 c 0,3.436148 -0.6171,18.789787 -7.829034,18.877331 -6.280739,0.07624 -6.423186,-15.441183 -6.423186,-18.877331 z"
         id="path5"
         style="fill:#ff007b;fill-opacity:1;stroke-width:0.56983"
         sodipodi:nodetypes="sssssss" />
      <path
         fill="#3c4d7a"
         fill-rule="nonzero"
         d="m 96.502327,41.006383 c 3.43607,-0.02446 19.460533,0.0049 19.397833,7.222527 -0.0586,6.744571 -15.86031,7.004874 -19.296385,7.029332 L 61.058724,55.511259 C 57.622663,55.535718 42.26502,55.027921 42.126143,47.816793 42.005199,41.536756 57.521215,41.283859 60.957276,41.259401 Z"
         id="path9"
         style="fill:#ff007b;fill-opacity:1;stroke-width:0.56983"
         sodipodi:nodetypes="sssssss" />
    </g>
    <g
       id="g11"
       transform="matrix(0.54580456,0,0,0.54580456,56.153848,-6.7845523)"
       style="fill:#ff56aa;fill-opacity:1;stroke-width:0.997155;stroke-dasharray:none">
      <path
         fill="#3c4d7a"
         fill-rule="nonzero"
         d="m 71.888875,30.718642 c 0,-3.436157 0.143453,-19.460001 7.360418,-19.345936 6.743983,0.10659 6.891802,15.909779 6.891802,19.345936 v 35.545952 c 0,3.436148 -0.6171,18.789787 -7.829034,18.877331 -6.280739,0.07624 -6.423186,-15.441183 -6.423186,-18.877331 z"
         id="path10"
         style="fill:#ff56aa;fill-opacity:1;stroke-width:0.997155;stroke-dasharray:none"
         sodipodi:nodetypes="sssssss" />
      <path
         fill="#3c4d7a"
         fill-rule="nonzero"
         d="m 96.502327,41.006383 c 3.43607,-0.02446 19.460533,0.0049 19.397833,7.222527 -0.0586,6.744571 -15.86031,7.004874 -19.296385,7.029332 L 61.058724,55.511259 C 57.622663,55.535718 42.26502,55.027921 42.126143,47.816793 42.005199,41.536756 57.521215,41.283859 60.957276,41.259401 Z"
         id="path11"
         style="fill:#ff56aa;fill-opacity:1;stroke-width:0.997155;stroke-dasharray:none"
         sodipodi:nodetypes="sssssss" />
    </g>
  </g>
</svg>
